PathFileType	4	(X/Y/Z)	s03c0301.trc
DataRate	CameraRate	NumFrames	NumMarkers	Units	OrigDataRate	OrigDataStartFrame	OrigNumFrames
200	200	4	52	mm	200	250	2000
Frame#	Time	racr			lacr			c7			jug			rlel			rdr			llel			ldr			s2			lic			ric			lasi			rasi			rpsi			lpsi			rgt			lgt			rth1			rth2			rth3			rth4			rlfc			rmfc			rsh1			rsh2			rsh3			rsh4			rlmal			rmmal			rcal			rtoe			rmt5			rmt1			lth1			lth2			lth4			lth3			llfc			lmfc			lsh1			lsh2			lsh3			lsh4			llmal			lmmal			lcal			ltoe			lmt1			lmt5			SBIKE			LBIKE			RBIKE			
		X1	Y1	Z1	X2	Y2	Z2	X3	Y3	Z3	X4	Y4	Z4	X5	Y5	Z5	X6	Y6	Z6	X7	Y7	Z7	X8	Y8	Z8	X9	Y9	Z9	X10	Y10	Z10	X11	Y11	Z11	X12	Y12	Z12	X13	Y13	Z13	X14	Y14	Z14	X15	Y15	Z15	X16	Y16	Z16	X17	Y17	Z17	X18	Y18	Z18	X19	Y19	Z19	X20	Y20	Z20	X21	Y21	Z21	X22	Y22	Z22	X23	Y23	Z23	X24	Y24	Z24	X25	Y25	Z25	X26	Y26	Z26	X27	Y27	Z27	X28	Y28	Z28	X29	Y29	Z29	X30	Y30	Z30	X31	Y31	Z31	X32	Y32	Z32	X33	Y33	Z33	X34	Y34	Z34	X35	Y35	Z35	X36	Y36	Z36	X37	Y37	Z37	X38	Y38	Z38	X39	Y39	Z39	X40	Y40	Z40	X41	Y41	Z41	X42	Y42	Z42	X43	Y43	Z43	X44	Y44	Z44	X45	Y45	Z45	X46	Y46	Z46	X47	Y47	Z47	X48	Y48	Z48	X49	Y49	Z49	X50	Y50	Z50	X51	Y51	Z51	X52	Y52	Z52	
250	1.2500	483.859490	1400.543705	-87.261332	476.156776	1410.910834	-404.134569	411.784632	1483.431578	-243.706441	442.268651	1316.269184	-242.445089	533.966396	1140.175321	-0.413262	746.990954	943.496140	-50.944837	552.902066	1153.652953	-464.434750	751.615242	925.032573	-423.692467	-108.380149	1202.253412	-242.640715	77.028031	1205.224554	-426.647637	71.363429	1222.892216	-60.851917	84.923165	1128.426602	-391.351935	80.873905	1157.542640	-100.132953	-77.561639	1253.435955	-199.660921	-70.817405	1248.660416	-281.875273	-0.686470	1141.014833	-37.176641	2.945340	1097.678567	-441.186880	120.522667	1048.755252	-12.827510	209.482452	1044.503070	-9.859083	283.025781	998.797040	-10.721691	220.740970	1076.786568	-24.957291	400.601834	928.789171	-32.720963	412.132293	918.325796	-158.025098	347.719211	769.656634	-18.550033	338.178969	682.971074	-37.905834	285.133272	612.249299	-44.364397	366.238741	676.490341	-63.957210	234.136685	490.374434	-71.016709	256.299551	508.689235	-158.409248	174.454594	434.508824	-113.245897	480.637760	476.032850	-116.928739	366.979741	440.305477	-45.186853	387.861138	460.406845	-160.483214	76.545998	959.598880	-467.681256	142.438446	904.933070	-480.490224	172.577944	926.014292	-478.760421	176.004532	821.867745	-474.719896	263.779466	723.987435	-469.773050	280.107736	716.011338	-344.928503	165.389170	581.633474	-476.670492	144.525621	502.979057	-451.162747	80.743563	439.810697	-436.217465	173.229604	491.115699	-426.867927	10.163253	338.808273	-404.418008	51.117536	347.906196	-317.117167	-63.339687	313.374042	-351.005265	230.371695	220.310815	-358.130129	139.378174	241.292724	-312.379857	107.648581	230.298325	-426.554138	-215.536770	944.389876	-233.133487	-9.247895	80.562582	-433.446454	-9.267381	80.410786	-33.145583	
251	1.2550	483.840511	1400.530872	-87.247334	476.177818	1410.904398	-404.114062	411.787928	1483.421180	-243.725444	442.269658	1316.239645	-242.444845	533.935876	1140.157176	-0.391419	746.987501	943.474594	-50.936856	552.890928	1153.641906	-464.442720	751.619384	925.039381	-423.704194	-108.371697	1202.246947	-242.640104	77.028120	1205.224552	-426.647851	71.369082	1222.888055	-60.853322	84.910352	1128.425354	-391.355628	80.870873	1157.555725	-100.129860	-77.570659	1253.448576	-199.638667	-70.823393	1248.662629	-281.873178	-0.673604	1141.011720	-37.184777	2.952871	1097.669300	-441.185520	120.537552	1048.749518	-12.843151	209.502391	1044.502568	-9.860829	283.032624	998.786174	-10.761971	220.749857	1076.789997	-24.971824	400.593377	928.790004	-32.715825	412.132293	918.325796	-158.025113	347.719604	769.663914	-18.555894	338.183771	682.972851	-37.904936	285.134691	612.253154	-44.363134	366.257146	676.512354	-63.959910	234.122048	490.376394	-71.019796	256.341573	508.703312	-158.412220	174.449493	434.518037	-113.238219	480.642564	476.023691	-116.941236	366.975046	440.293323	-45.199965	387.875258	460.400510	-160.489534	76.547646	959.589489	-467.664112	142.434414	904.940600	-480.519292	172.578031	926.013690	-478.759410	176.022644	821.872951	-474.733598	263.793592	723.964691	-469.754112	280.111619	716.017122	-344.914277	165.390204	581.642005	-476.680396	144.525883	502.972539	-451.156993	80.742267	439.805139	-436.218049	173.228193	491.098899	-426.877977	10.165106	338.818959	-404.417347	51.136378	347.913533	-317.143467	-63.339771	313.373730	-351.002240	230.367404	220.304579	-358.119474	139.375400	241.294358	-312.379594	107.660215	230.306804	-426.544749	-215.533367	944.384722	-233.112915	-9.255165	80.569958	-433.438585	-9.272520	80.410446	-33.135093	
252	1.2600	483.858166	1400.482120	-87.237401	476.171519	1410.899201	-404.123292	411.776702	1483.414753	-243.735860	442.268723	1316.239610	-242.449336	533.946224	1140.118058	-0.382714	746.986646	943.479723	-50.920572	552.894209	1153.632414	-464.454863	751.619190	925.026416	-423.699576	-108.380046	1202.251971	-242.637607	77.039506	1205.235223	-426.689323	71.347142	1222.896536	-60.845602	84.911766	1128.430975	-391.354771	80.842056	1157.566726	-100.095859	-77.565017	1253.436266	-199.668257	-70.813862	1248.653234	-281.888625	-0.661528	1141.024038	-37.186251	2.951529	1097.666754	-441.183197	120.527587	1048.764279	-12.828312	209.487052	1044.514884	-9.862645	283.045446	998.809451	-10.759000	220.750209	1076.806090	-24.974543	400.608234	928.809407	-32.724618	412.143746	918.346489	-158.040888	347.727672	769.675904	-18.552302	338.194436	682.978555	-37.917387	285.166078	612.250601	-44.353688	366.274329	676.519595	-63.970779	234.152202	490.380787	-71.035991	256.342760	508.702210	-158.412561	174.454300	434.521373	-113.245051	480.650166	476.013284	-116.957273	366.996459	440.301048	-45.187376	387.886797	460.409483	-160.497529	76.538757	959.588491	-467.698981	142.444637	904.936535	-480.491968	172.578341	926.013215	-478.757609	176.013481	821.874501	-474.738360	263.788930	723.967725	-469.764460	280.129519	716.025779	-344.915642	165.405648	581.640005	-476.662485	144.525621	502.979026	-451.162747	80.737682	439.819057	-436.229702	173.237142	491.115273	-426.863766	10.163354	338.817861	-404.421256	51.088901	347.927593	-317.104466	-63.343911	313.375916	-351.003676	230.360827	220.315818	-358.122294	139.373111	241.294373	-312.379630	107.651656	230.304699	-426.546621	-215.533435	944.389131	-233.119097	-9.245416	80.575643	-433.434434	-9.246342	80.420628	-33.126513	
253	1.2650	483.837904	1400.466093	-87.226103	476.166976	1410.886792	-404.133767	411.774036	1483.413566	-243.731380	442.268692	1316.239610	-242.449427	533.927026	1140.098753	-0.369061	746.974201	943.467907	-50.925307	552.881103	1153.627864	-464.475222	751.598584	925.002863	-423.642582	-108.443017	1202.377904	-242.723517	77.039564	1205.220075	-426.690826	71.354098	1222.899036	-60.853997	84.897000	1128.422313	-391.354174	80.774437	1157.651910	-100.018466	-77.566012	1253.433908	-199.673309	-70.815257	1248.661795	-281.886539	-0.677016	1141.010453	-37.190884	2.952105	1097.669062	-441.184747	120.529207	1048.776947	-12.847981	209.510328	1044.511101	-9.878453	283.041804	998.809238	-10.779004	220.751674	1076.801459	-24.989555	400.616702	928.818814	-32.731655	412.145889	918.338907	-158.034720	347.742605	769.693242	-18.559795	338.186017	682.988238	-37.936197	285.173525	612.260099	-44.372819	366.268180	676.532180	-63.961291	234.144238	490.402556	-71.034725	256.353183	508.708862	-158.424799	174.460102	434.528077	-113.254284	480.662219	476.005330	-116.951907	366.999214	440.303818	-45.200319	387.870000	460.397700	-160.473904	76.556987	959.587328	-467.667313	142.446592	904.939128	-480.504187	172.583256	926.005812	-478.751992	176.028162	821.863639	-474.738167	263.800897	723.969540	-469.758656	280.141552	716.020334	-344.909325	165.403013	581.637323	-476.662008	144.534571	502.977395	-451.156547	80.742538	439.826604	-436.220566	173.248401	491.107610	-426.876255	10.162813	338.824611	-404.416571	51.102447	347.937817	-317.132560	-63.339617	313.389549	-351.012770	230.366186	220.310928	-358.119264	139.373391	241.293965	-312.379111	107.651610	230.305350	-426.541223	-215.541282	944.389546	-233.120737	-9.250118	80.573039	-433.440741	-9.261423	80.432196	-33.130313	
